# xmcd
# Track frame offsets:
# 150
# 14877
# 33560
# 53640
# 69655
# 83427
# 99275
# 115050
# 129480
# 147305
#
# Disc length: 2180 seconds
# Revision: 0
# Processed by: cddbd v1.5.1PL2 Copyright (c) Steve Scherf et al.
# Submitted via: VisiTrax 2.9.10.228 - For more info visit www.synapsa.com
#
DISCID=8208820a
DTITLE=Jamie Slocum - Somewhere Under Heaven
DYEAR=1996
DGENRE=Country
TTITLE0=Since I Found You
TTITLE1=Somewhere Under Heaven
TTITLE2=I Don't Want Your Love
TTITLE3=I'll Be The One To Find You
TTITLE4=Walk With Me
TTITLE5=Call On Me
TTITLE6=You Set Me Free
TTITLE7=Headed For The Light
TTITLE8=Every Beat In My Heart
TTITLE9=Get Away
EXTD=
EXTT0=
EXTT1=
EXTT2=
EXTT3=
EXTT4=
EXTT5=
EXTT6=
EXTT7=
EXTT8=
EXTT9=
PLAYORDER=
